<svg xmlns="http://www.w3.org/2000/svg" viewBox="83.6 360 1752.7 359.9" fill="#673ab7"><path d="M961.1 507.8L924 646.6c-6.6 22.6-16.2 40.1-28.9 52.4-12.6 12.3-27.3 18.4-44.1 18.4-7.2 0-14.7-1.1-22.7-3.2-8.1-2.1-15.6-4.9-22.8-8.5l11.9-49.6c3.5 2.8 8.5 5.3 15.1 7.4 6.8 2.1 12.3 3.2 16.7 3.2 8 0 14.1-3.4 18.4-10.1L808.4 512l52-1.3 27.1 78.6 20.4-79.1 53.2-2.4zM1174.9 647c-.1 1.8-.2 3.6-.7 5-.4 1.3-1.1 2.3-2 3-1.1.7-2.5 1.2-4.5 1h0c-2.2-.3-3.5-1.5-4.2-3.3-.8-2-.8-5-.5-8 1-7.5 1.9-11 2.9-19.2.5-5.7 1.1-9.2 1.5-14.1.4-3.2.5-7.1 1.3-9.9.7-2.6 2-4.3 4.1-4.7 2.6-.5 5.6.6 6.7 2.4.8 1.3 1 2.9.8 4.4-.1 1.8-.7 3.6-.8 5.1-.2 1.9-.7 4.7-1 6.6 1-.3 1.8-.9 2.6-1.4 1.9-1.1 3.9-1.9 6.8-1.4 1.8.4 3.3 1.7 4.5 3.8 1.3 2.5 2 6.1 2.3 9.6.2 3.9-.1 10-.1 14.7 0 3.1.1 6.3-.2 8.8-.2 2.1-1 3.7-1.9 4.7-1.5 1.5-3.8 1.9-5.8 1.4-1.4-.4-2.5-1.2-3.1-2.1-.4-.6-.6-1.8-.6-3.6-.1-3.1.4-8.3.4-14.2 0-1.4.1-6-.2-9.1-.1-.3-.1-.7-.2-1-1.3.3-2.4 1.1-3.1 1.9l-.1.1c-1.2 1-2 2.6-2.7 4.3-1.5 5.4-1.2 9.1-2.2 15.2zm281.7-136.1c22.1 0 39.2 6.5 51.4 19.4 12.3 12.9 18.4 30.5 18.4 52.8 0 3.7-.1 6.5-.2 8.5l-94 1.1c2.1 5.8 5 10.7 8.8 14.5s8.3 5.9 13.5 6.2c14.1 1.1 24.4-3.1 30.8-12.5l37.9 10.9c-2.3 8.3-6.7 15.8-13.2 22.4-6.6 6.6-14.4 11.8-23.5 15.5s-18.5 5.6-28.3 5.6c-2.3 0-4.1-.1-5.4-.3-12.2-.9-23.5-4.9-33.7-11.9-10.4-7.1-18.6-16.4-24.7-27.9s-9.2-24.1-9.2-37.7c0-2.7.1-4.7.2-6.1.7-11.7 4.3-22.1 10.7-31.3s15-16.4 25.5-21.5 22.2-7.7 35-7.7zm-387.5 49c-8-4.4-15-7.7-21.2-9.7s-12-3.1-17.8-3.1c-5.2 0-9.7.8-13.1 2.4-3.5 1.6-5.2 3.6-5.2 6.1 0 4.4 6.2 6.6 18.6 6.6 18.1 0 32.2 3.5 42.2 10.6 10.1 7.1 15.1 16.9 15.1 29.5 0 9.6-3 18.4-8.9 26.4s-13.8 14.5-23.9 19.2c-10 4.8-20.9 7.2-32.8 7.2-11.7 0-22.8-2.2-33.4-6.5s-19.1-10.1-25.3-17.4l26.8-30.3c4.3 3.7 9.2 6.6 14.7 8.6s11 3.1 16.7 3.1c5.5 0 10.1-.9 14-2.8 3.8-1.9 5.7-4.1 5.7-6.8 0-2.1-1.3-3.6-3.8-4.5-2.4-.9-6.6-1.3-12.4-1.3-1.1.2-2.6.3-4.8.3-8.8 0-17.3-2-25.2-6s-14.2-9.3-19-16.1c-4.8-6.7-7.2-14-7.2-21.8 0-8.1 2.7-15.8 8.2-22.8 5.5-7.1 12.9-12.8 22.1-17.1s19-6.5 29.2-6.5c10.3 0 20.5 2 30.9 6.1s19.8 9.7 28.3 17l-18.5 29.6zm579.8 93.5l-.2-12.5c-4.8 4.1-10.7 7.3-17.8 9.8a65.27 65.27 0 0 1-21.8 3.7c-11.7 0-22.4-3.2-32.3-9.7s-17.8-15.2-23.6-26.1-8.8-23-8.8-36.1c0-13.3 3-25.4 9.1-36.4 6-11 14.3-19.6 24.8-25.9s22.2-9.4 34.9-9.4c6.9 0 13.4 1.1 19.4 3.4s11.1 5.5 14.8 9.6v-11.4h44l6.1 140.9h-48.6zM501.5 449.2c21.2 0 41.5 4.9 60.9 14.6 19.3 9.7 34.9 23.1 46.7 40 11.9 16.9 17.8 35.7 17.8 56.4 0 31.7-11.4 55.3-34.5 70.9-23 15.6-53.9 23.3-92.9 23.3-15.5 0-30.9-.9-46.2-2.6l2.2-192.4c8.1-3.5 15.7-6.1 22.9-7.7 7.2-1.7 15-2.5 23.1-2.5zM1152 599.6c1.2-.1 3.1.1 4.4.8 1.3.6 2.3 1.6 2.5 2.9v.1c.4 2.9-1.3 5.9-3.2 6.9-1.2.6-3.7.8-6.1.9-1.1.1-2 .1-2.9.3-.5.1-1 .2-1.2.4h0c-.2.2-.4.4-.5.8-.1.5-.2 1.2-.2 1.9-.2 2.5 0 5.8-.1 8.8-.4 10.3.5 20.3-1.5 27h0c-.7 2.3-2.9 3.7-5.3 3.7-2.1.1-4.4-1-5.6-3.1-.6-.8-1-2-1.1-3.4-.4-2.7 0-6.3.2-8.7l.5-13.7c-.2-2 0-5.6-.2-8.9-.2-1.6-.4-3.2-.8-4.3-.6 0-2-.1-3.1-.1-1.9.1-4.2.2-6.1 0-1.7-.2-3-.7-3.8-1.4-.5-.4-1.2-1.3-1.5-2.5-.4-1.5-.5-3.5.2-5 .2-.6.8-1.2 1.7-1.7.7-.5 1.9-.8 3.2-1.1 4.5-.9 11.6-.6 14.7-.3 3.8.4 12.1-.2 15.8-.3zm190.1-31.4l.4 85.5h-53.1l-.4-90-68.9-90 55.7-23.1 42.2 61.6 41.1-61.6 53.1 13-70.1 104.6zm-595.2 84.3l-.2-12.5c-4.8 4.1-10.7 7.3-17.8 9.8-7 2.5-14.3 3.7-21.7 3.7-11.7 0-22.5-3.2-32.4-9.7s-17.8-15.2-23.6-26.1-8.7-23-8.7-36.1c0-13.3 3-25.4 8.9-36.4 6.1-11 14.3-19.6 24.8-25.9 10.6-6.3 22.2-9.4 34.9-9.4 6.9 0 13.4 1.1 19.6 3.4 6.1 2.3 11 5.5 14.7 9.6v-11.4h44.1l6.1 140.9h-48.7zM1802 510.6c6.2 0 12.3 1.5 18.4 4.7 6 3.1 11.3 7.5 15.9 13.1l-18.2 41.1c-5.1-7.1-12.2-10.6-21-10.6-9.5 0-16.7 3.4-21.3 10.2-4.8 6.8-7.4 17.9-8.1 33.3v51h-49.4V512h49.4v12.2c4.8-4.2 10.3-7.6 16.3-9.9 6-2.5 12.1-3.7 18-3.7zm-588.9 103.8c4.3-1.5 8.3-1.5 11.7-.2 3.3 1.4 6.2 4.2 8.1 8.6.6 1.2 1.8 4.6 1.8 6.2.2 2.8-1.9 6.4-4.6 7.3-3.6 1.3-5.5 2.4-9.1 3.4-1.7.5-3.7 1-5.4 1.6.2.1.5.3.7.4.8.4 1.8.6 3.1.9 2.6.6 4.4-.6 6-1.2 1.7-.7 3.3-.9 5 .1l.2.1.1.2c2.6 2.7 1.9 6.3-.1 8l-.1.1c-2.6 1.9-6.7 3.1-10.6 3.3-2.6.1-5-.3-6.9-1.3-6.9-2.8-9.2-5.4-11.5-12.4l-.1-.2c-1.5-7.4-.6-12.7 2.1-16.5 2.2-4 6.1-7.3 9.6-8.4zm9.5 13.2c-.6-1.4-1.3-2.3-2.4-2.7-1.7-.8-3.9.1-6.2 2h0c-.7.6-1.1 1.6-1.3 2.6 0 .5-.1.9-.1 1.3.4-.1.7-.2 1.1-.3 2-.5 4.4-1.2 6.1-1.5.8-.2 1.8-.6 2.5-1.2.1 0 .2-.1.3-.2zm395.6-16.9c4.6 0 9.1-1.4 13.2-4.3 4.3-2.8 7.6-6.6 10.1-11.3s3.7-9.7 3.7-15c0-7.3-2.4-13.3-7-18.2s-10.6-7.3-17.6-7.3c-7.8 0-14.6 2.7-20.4 8.2s-8.8 12-8.8 19.6c0 4.6 1.3 9.1 3.8 13.5 2.6 4.4 6 8 10.1 10.6 4.2 2.9 8.4 4.2 12.9 4.2zm-902.1-1c4.6 0 9.1-1.4 13.4-4.2 4.2-2.8 7.5-6.6 10-11.3s3.7-9.7 3.7-15c0-7.3-2.3-13.3-7-18.2-4.6-4.9-10.5-7.3-17.6-7.3-7.8 0-14.6 2.7-20.4 8.2s-8.8 12-8.8 19.6c0 4.6 1.3 9.1 3.9 13.5 2.5 4.4 5.8 8 10 10.6 4.1 2.8 8.4 4.1 12.8 4.1zm-209.8-11.4c42.1.9 63.2-14.6 63.2-46.4 0-9-2.6-16.9-7.6-23.6s-11.6-11.9-19.7-15.5c-8-3.6-16.2-5.4-24.8-5.4-4.4 0-8.1.4-11.1 1.1v89.8zm636.5-80.8c5.6-.1 13 1.4 16.8 5.8 6.4 6.3 7.8 17.2 6.3 25.9-1.2 7.1-2 9.7-4.9 14-5.1 8.3-13 12.7-23.4 12.8-7.9-.1-12.5-4-15.7-9-3.7-5.5-5-8.8-4.5-17.7.6-9.9 3.3-18.3 8.5-23.2 4-4.8 9.9-8.5 16.9-8.6zm34.8 22.5c.6-6.3 1.3-10.7 3.5-15.8 2.6-6.2 6-10.6 12.2-11.9 6.3-1.4 10.6 1.9 13.1 6.8 1.8 3.6 2 7.6 1.3 9.4-1 3.2-4.5 4.3-7.2 3.6-1.1-.1-1.9-.7-2.6-1.7-.6-.9-1.1-2.3-1.6-3.3-.4-.8-.7-1.8-1.2-2.7-.1-.3-.2-.7-.7-.7-.4 0-.6.2-.8.5-.4.3-.6.8-.8 1.3-1.2 2.3-1.8 5.7-2.1 7.9-.4 1.6-.8 6.6-.7 10.1 0 .8 0 1.6.1 2.1.6.1 1.2.1 1.9 0 1.3-.1 2.7-.1 5 .6h.1c3.1 1 4.2 4.3 3.5 6.9-.5 1.9-1.8 3.5-3.6 3.8-1.5.3-3.2.3-4.6.3-1 0-1.8.1-2.5.3v.4c-.1 1-.1 2.2-.1 3.6 0 3.8.1 8.4-.6 10.9h0c-1 2.7-4.2 3.9-6.9 3.4-2-.3-3.7-1.6-4.2-3.2-.6-2.3-.5-5.5-.5-8.8.1-2.4.2-4.9-.1-6.9-1.1-.2-1.7-.1-2.1-.1-1.1-.1-2-.4-3.9-2.3h0c-1.7-1.8-1.4-3.4-1.1-4.8.2-1.1 1-2.1 1.9-2.9 1.2-1 2.9-1.6 4.5-1.7h.7c0-.2.1-.7.1-1.1-.1-1.3-.2-3 0-4zm-24.3 3.9c-.1-3.3-1.3-6.8-3.1-9.3-1-1.5-2.3-2.6-3.6-3.1-1.7-.6-3.8-1.1-6.4-.9-3 .3-6.1 3.2-7.3 5.5-1.6 3.1-3.1 11.8-2.4 17.4.2 1.9 1.4 4.2 3 6.1 1.5 1.9 3.3 3.6 4.8 4.1 5.1 1.7 9.3-2 11.2-4.8 2.6-3.9 3.7-10.1 3.8-15zm305.9-.1c-13.1-1.1-22.1 4.4-26.8 16.5l44.8.3c-.7-5.1-2.7-9.1-6.2-11.9-3.5-2.9-7.4-4.5-11.8-4.9zM245 600.9l-64.8-35.6-68.8 15.3 100.2 69 2.3 70.4 57.4-15.5 6-54.7L382.8 557l-64.3-11.5-73.5 55.4zm-37.3-37.7c20.7 19.3 55.8 15.6 78.3-8.3s24-58.9 3.3-78.2c-20.6-19.3-55.8-15.6-78.4 8.3-22.4 23.8-23.8 58.9-3.2 78.2zm-21.3-14.6c-7.9-22.4-2.2-50.1 17.3-70.7 12.5-13.2 28.3-21 44-23.2-.1-1.9-.5-3.8-.7-5.7-10.6-62.5-75-79.7-126.1-74.9L83.6 558.9c40.8 4.2 75.7.2 102.8-10.3zM402.6 360l-163.1 35.6 23 49.5 36.8-4.7 22.3 94.4 62.6 5.7-22.5-108 44.1-5.6-3.2-66.9zm-239.9 71.2c11.2-.3 25 12.4 23.4 32.6-3.2 37.8-38.3 38.3-38.3 38.3l14.9-70.9z"/></svg>